Coordinates
version=1
nRows=7
nColumns=46
inDegrees=yes

Units are S.I. units (second, meters, Newtons, ...)
Angles are in degrees.

endheader
time	pelvis_tilt	pelvis_list	pelvis_rotation	pelvis_tx	pelvis_ty	pelvis_tz	bb_angle	bb_tx	bb_ty	bb_tz	hip_flexion_r	hip_adduction_r	hip_rotation_r	knee_angle_r	knee_angle_r_beta	ankle_angle_r	subtalar_angle_r	mtp_angle_r	crank_angle_r	hip_flexion_l	hip_adduction_l	hip_rotation_l	knee_angle_l	knee_angle_l_beta	ankle_angle_l	subtalar_angle_l	mtp_angle_l	crank_angle_l	lumbar_extension	lumbar_bending	lumbar_rotation	arm_flex_r	arm_add_r	arm_rot_r	elbow_flex_r	pro_sup_r	wrist_flex_r	wrist_dev_r	arm_flex_l	arm_add_l	arm_rot_l	elbow_flex_l	pro_sup_l	wrist_flex_l	wrist_dev_l
      7.50000000	    -31.58958481	     -3.02640026	     -0.15309065	      0.30538350	      1.01259615	     -0.20654201	      0.00000000	      0.50000000	      0.00000000	      0.25000000	     78.28502887	     -2.48370900	      3.38036172	    111.91326905	      1.95325502	     -8.56793420	     -4.90543502	      0.00000000	      0.00000000	     40.15114307	     -8.38516529	     -3.64856109	     24.00939855	      0.41904306	     -6.54743057	     -2.53978131	      0.00000000	      0.00000000	    -37.03907322	      3.56650623	     -7.31896679	     72.62414008	     -8.82369612	     81.15693984	     44.87846702	     57.22060207	      0.00000000	      0.00000000	     35.71144483	    -35.71502936	     22.63784197	     84.02002808	     50.62222595	      0.00000000	      0.00000000
      7.50500000	    -31.79001614	     -3.16068584	     -0.85177035	      0.30473363	      1.01075497	     -0.20680857	      0.00000000	      0.50000000	      0.00000000	      0.25000000	     80.20597916	     -2.15722048	      3.43783255	    113.52321746	      1.98135392	     -7.11866485	     -4.81562728	      0.00000000	      0.00000000	     39.19023653	     -8.84783214	     -4.18388237	     23.03400251	      0.40201918	     -7.49026730	     -2.19273879	      0.00000000	      0.00000000	    -36.69880351	      3.67374287	     -6.76014780	     72.87266150	     -8.80745919	     81.25757317	     44.98151503	     57.29237729	      0.00000000	      0.00000000	     35.39055482	    -35.56100264	     22.50541317	     83.94181355	     50.60800417	      0.00000000	      0.00000000
      7.51000000	    -31.88935843	     -2.96041671	     -1.66816848	      0.30445797	      1.00906249	     -0.20690886	      0.00000000	      0.50000000	      0.00000000	      0.25000000	     82.03936519	     -1.85402336	      4.00419542	    115.06476367	      2.00825898	     -5.08006413	     -3.13013073	      0.00000000	      0.00000000	     38.04497067	     -9.10848970	     -5.19222702	     22.11184820	      0.38592455	     -8.45884800	     -1.90726132	      0.00000000	      0.00000000	    -36.44570531	      3.39966948	     -6.12518880	     73.28791301	     -9.38667274	     82.38232680	     45.81712540	     58.21330165	      0.00000000	      0.00000000	     34.76899166	    -34.42446676	     20.88998096	     83.60725853	     50.51502079	      0.00000000	      0.00000000
      7.51500000	    -31.95493519	     -2.75903472	     -2.55833031	      0.30453054	      1.00761007	     -0.20695539	      0.00000000	      0.50000000	      0.00000000	      0.25000000	     83.81139224	     -1.51034547	      4.41100117	    116.38354288	      2.03127602	     -3.66942515	     -2.27459707	      0.00000000	      0.00000000	     36.86157812	     -9.41950974	     -6.30997201	     21.30996431	      0.37192904	     -9.15381322	     -1.35093342	      0.00000000	      0.00000000	    -36.23564532	      3.01251756	     -5.55914387	     73.36232198	     -9.47829569	     82.55066339	     45.93172794	     58.43275049	      0.00000000	      0.00000000	     34.50049898	    -34.12963283	     20.77266286	     83.54911113	     50.52742135	      0.00000000	      0.00000000
      7.52000000	    -32.18554261	     -2.55252252	     -3.45168450	      0.30446463	      1.00598480	     -0.20646868	      0.00000000	      0.50000000	      0.00000000	      0.25000000	     85.77070842	     -1.06867134	      4.68571524	    117.50044906	      2.05076971	     -2.65680493	     -1.71491878	      0.00000000	      0.00000000	     35.93818348	     -9.79962131	     -7.46964999	     20.69666488	      0.36122495	     -9.76063195	     -0.63285745	      0.00000000	      0.00000000	    -35.87218305	      2.64145449	     -5.10052529	     73.44669760	     -9.40564409	     82.78680272	     46.05562637	     58.62073479	      0.00000000	      0.00000000	     34.31668295	    -33.57879958	     21.17443862	     83.49697407	     50.57320224	      0.00000000	      0.00000000
      7.52500000	    -32.20148330	     -2.40186193	     -4.18028570	      0.30429412	      1.00504151	     -0.20665199	      0.00000000	      0.50000000	      0.00000000	      0.25000000	     87.41953422	     -0.81373652	      4.88122460	    118.35346339	      2.06565762	     -1.79916088	     -1.07017342	      0.00000000	      0.00000000	     34.88712056	    -10.09114562	     -8.46696031	     20.21288305	      0.35278136	    -10.17651312	      0.34159136	      0.00000000	      0.00000000	    -35.76804737	      2.41385573	     -4.19964927	     73.76340839	    -10.23589231	     83.24692641	     46.99736091	     59.41207174	      0.00000000	      0.00000000	     34.14117775	    -32.89735593	     19.92237667	     82.85268968	     50.43872261	      0.00000000	      0.00000000
      7.53000000	    -32.35301389	     -2.05913590	     -4.89059629	      0.30410806	      1.00390192	     -0.20630784	      0.00000000	      0.50000000	      0.00000000	      0.25000000	     89.24952938	     -0.51985569	      5.15470918	    119.06270460	      2.07803621	     -1.32170339	     -0.78938179	      0.00000000	      0.00000000	     34.01711638	    -10.26670570	     -9.62724577	     19.85164844	      0.34647663	    -10.53192612	      1.42403059	      0.00000000	      0.00000000	    -35.50576307	      1.96492842	     -3.75958247	     73.87527557	    -10.40693801	     83.44780676	     47.27937099	     59.70168969	      0.00000000	      0.00000000	     33.97605682	    -32.67472898	     19.81513161	     82.72389931	     50.44519225	      0.00000000	      0.00000000
